<?xml version="1.0" encoding="UTF-8" standalone="no"?>
<!DOCTYPE svg PUBLIC "-//W3C//DTD SVG 1.1//EN" "http://www.w3.org/Graphics/SVG/1.1/DTD/svg11.dtd">
<svg width="100%" height="100%" viewBox="0 0 233 233" version="1.1" xmlns="http://www.w3.org/2000/svg" xmlns:xlink="http://www.w3.org/1999/xlink" xml:space="preserve" xmlns:serif="http://www.serif.com/" style="fill-rule:evenodd;clip-rule:evenodd;stroke-linecap:round;stroke-linejoin:round;stroke-miterlimit:1.5;">
    <g transform="matrix(1,0,0,1,-183.689,-183.689)">
        <g id="v2">
            <g transform="matrix(1.74716,0,0,1.43082,-306.964,-123.396)">
                <rect x="290.165" y="226.021" width="114.472" height="139.78" style="fill:none;stroke:black;stroke-width:5.22px;"/>
            </g>
            <g transform="matrix(2.03213,0,0,1.6642,-405.964,-192.454)">
                <rect x="290.165" y="226.021" width="114.472" height="139.78" style="fill:none;"/>
            </g>
            <g transform="matrix(1,0,0,1,-70.2508,7.39276)">
                <path d="M298.61,294.267L286.501,247.295L300.824,247.295L306.13,276.266L306.781,276.266L313.389,247.295L324.066,247.295L331,276.266L331.651,276.266L336.826,247.295L351.019,247.295L338.91,294.267L325.987,294.267L319.053,268.063L318.402,268.063L311.631,294.267L298.61,294.267Z" style="fill-rule:nonzero;"/>
                <path d="M367.356,295.179C363.342,295.179 359.902,294.419 357.037,292.9C354.173,291.381 351.981,289.189 350.462,286.325C348.943,283.46 348.183,280.01 348.183,275.973L348.183,275.908C348.183,271.958 348.959,268.557 350.511,265.703C352.062,262.849 354.27,260.647 357.135,259.095C360,257.543 363.407,256.767 367.356,256.767C371.328,256.767 374.746,257.538 377.61,259.079C380.475,260.619 382.677,262.817 384.218,265.67C385.759,268.524 386.529,271.937 386.529,275.908L386.529,275.973C386.529,280.01 385.775,283.46 384.267,286.325C382.759,289.189 380.572,291.381 377.708,292.9C374.843,294.419 371.393,295.179 367.356,295.179ZM367.356,285.283C368.528,285.283 369.521,284.914 370.335,284.176C371.149,283.438 371.773,282.375 372.207,280.986C372.641,279.597 372.858,277.937 372.858,276.006L372.858,275.941C372.858,274.031 372.635,272.387 372.19,271.009C371.745,269.631 371.116,268.562 370.302,267.803C369.488,267.043 368.506,266.663 367.356,266.663C366.228,266.663 365.251,267.043 364.427,267.803C363.602,268.562 362.967,269.631 362.522,271.009C362.077,272.387 361.855,274.031 361.855,275.941L361.855,276.006C361.855,277.959 362.072,279.63 362.506,281.019C362.94,282.408 363.569,283.466 364.394,284.193C365.219,284.92 366.206,285.283 367.356,285.283Z" style="fill-rule:nonzero;"/>
                <path d="M388.691,294.267L388.691,257.679L402.037,257.679L402.037,263.636L402.688,263.636C403.166,261.574 404.164,259.979 405.683,258.851C407.202,257.722 409.101,257.158 411.38,257.158C412.139,257.158 412.877,257.212 413.593,257.321C414.309,257.429 414.993,257.603 415.644,257.842L415.644,268.909C414.819,268.671 413.957,268.486 413.056,268.356C412.156,268.226 411.271,268.161 410.403,268.161C408.602,268.161 407.077,268.459 405.83,269.056C404.582,269.653 403.638,270.526 402.998,271.676C402.357,272.826 402.037,274.237 402.037,275.908L402.037,294.267L388.691,294.267Z" style="fill-rule:nonzero;"/>
                <path d="M423.535,294.788C420.54,294.788 417.968,294.05 415.82,292.575C413.671,291.099 412.022,288.961 410.872,286.162C409.722,283.362 409.147,279.977 409.147,276.006L409.147,275.941C409.147,271.926 409.705,268.519 410.823,265.719C411.941,262.92 413.568,260.793 415.706,259.339C417.844,257.885 420.453,257.158 423.535,257.158C425.206,257.158 426.73,257.413 428.108,257.923C429.486,258.433 430.68,259.165 431.689,260.12C432.698,261.075 433.485,262.236 434.049,263.603L434.7,263.603L434.7,244.202L448.046,244.202L448.046,294.267L434.7,294.267L434.7,288.766L434.049,288.766C433.528,290.025 432.779,291.104 431.803,292.005C430.826,292.906 429.644,293.595 428.255,294.072C426.866,294.55 425.293,294.788 423.535,294.788ZM428.71,284.046C429.947,284.046 431.016,283.731 431.917,283.102C432.817,282.473 433.517,281.556 434.016,280.351C434.516,279.147 434.765,277.709 434.765,276.038L434.765,275.973C434.765,274.28 434.51,272.832 434,271.627C433.49,270.423 432.785,269.501 431.884,268.86C430.984,268.22 429.926,267.9 428.71,267.9C427.517,267.9 426.464,268.226 425.553,268.877C424.641,269.528 423.936,270.456 423.437,271.66C422.938,272.864 422.688,274.291 422.688,275.941L422.688,276.006C422.688,277.677 422.938,279.114 423.437,280.319C423.936,281.523 424.636,282.446 425.537,283.086C426.437,283.726 427.495,284.046 428.71,284.046Z" style="fill-rule:nonzero;"/>
                <rect x="289.138" y="293.128" width="13.802" height="46.973" style="fill-rule:nonzero;"/>
                <path d="M323.493,341.012C319.305,341.012 315.8,340.296 312.979,338.864C310.158,337.431 308.036,335.288 306.615,332.435C305.193,329.581 304.483,326.038 304.483,321.806L304.483,321.741C304.483,317.51 305.193,313.978 306.615,311.146C308.036,308.314 310.158,306.181 312.979,304.749C315.8,303.317 319.305,302.601 323.493,302.601C326.987,302.601 329.987,303.187 332.494,304.359C335,305.53 336.959,307.245 338.369,309.502C339.78,311.759 340.594,314.515 340.811,317.77L328.734,317.77L328.701,317.737C328.506,316.001 327.991,314.694 327.155,313.815C326.32,312.936 325.131,312.497 323.591,312.497C322.289,312.497 321.231,312.822 320.417,313.473C319.603,314.124 319.001,315.128 318.61,316.484C318.22,317.841 318.024,319.593 318.024,321.741L318.024,321.806C318.024,323.955 318.22,325.718 318.61,327.096C319.001,328.474 319.603,329.489 320.417,330.14C321.231,330.791 322.289,331.116 323.591,331.116C325.131,331.116 326.32,330.709 327.155,329.896C327.991,329.082 328.495,327.839 328.669,326.168L328.734,326.168L340.746,326.136L340.778,326.201C340.583,329.283 339.764,331.93 338.321,334.144C336.877,336.357 334.903,338.055 332.396,339.238C329.89,340.421 326.922,341.012 323.493,341.012Z" style="fill-rule:nonzero;"/>
                <path d="M360.388,341.012C356.373,341.012 352.933,340.253 350.069,338.734C347.204,337.214 345.012,335.023 343.493,332.158C341.974,329.293 341.214,325.843 341.214,321.806L341.214,321.741C341.214,317.792 341.99,314.39 343.542,311.536C345.094,308.683 347.302,306.48 350.166,304.928C353.031,303.377 356.438,302.601 360.388,302.601C364.359,302.601 367.777,303.371 370.641,304.912C373.506,306.453 375.709,308.65 377.25,311.504C378.79,314.357 379.561,317.77 379.561,321.741L379.561,321.806C379.561,325.843 378.807,329.293 377.298,332.158C375.79,335.023 373.604,337.214 370.739,338.734C367.875,340.253 364.424,341.012 360.388,341.012ZM360.388,331.116C361.559,331.116 362.552,330.747 363.366,330.01C364.18,329.272 364.804,328.208 365.238,326.819C365.672,325.431 365.889,323.77 365.889,321.839L365.889,321.774C365.889,319.864 365.666,318.22 365.222,316.842C364.777,315.464 364.147,314.395 363.334,313.636C362.52,312.876 361.538,312.497 360.388,312.497C359.259,312.497 358.283,312.876 357.458,313.636C356.633,314.395 355.998,315.464 355.554,316.842C355.109,318.22 354.886,319.864 354.886,321.774L354.886,321.839C354.886,323.792 355.103,325.463 355.537,326.852C355.971,328.241 356.601,329.299 357.425,330.026C358.25,330.753 359.237,331.116 360.388,331.116Z" style="fill-rule:nonzero;"/>
                <path d="M381.722,340.101L381.722,303.512L395.069,303.512L395.069,309.306L395.72,309.306C396.479,307.288 397.76,305.666 399.561,304.44C401.362,303.214 403.532,302.601 406.071,302.601C410.108,302.601 413.157,303.811 415.218,306.23C417.28,308.65 418.311,312.063 418.311,316.468L418.311,340.101L404.964,340.101L404.964,319.43C404.964,317.52 404.568,316.028 403.776,314.954C402.984,313.88 401.742,313.343 400.049,313.343C398.986,313.343 398.085,313.603 397.347,314.124C396.609,314.645 396.045,315.361 395.654,316.273C395.264,317.184 395.069,318.237 395.069,319.43L395.069,340.101L381.722,340.101Z" style="fill-rule:nonzero;"/>
                <path d="M436.618,341.012C432.733,341.012 429.5,340.508 426.918,339.499C424.335,338.489 422.355,337.117 420.977,335.381C419.599,333.645 418.79,331.702 418.552,329.554L418.519,329.261L431.41,329.261L431.507,329.521C431.811,330.281 432.365,330.932 433.168,331.474C433.97,332.017 435.121,332.288 436.618,332.288C437.486,332.288 438.229,332.191 438.848,331.995C439.466,331.8 439.944,331.523 440.28,331.165C440.617,330.807 440.785,330.368 440.785,329.847L440.785,329.814C440.785,329.076 440.481,328.496 439.873,328.073C439.266,327.65 438.224,327.297 436.748,327.015L430.238,325.778C427.872,325.322 425.876,324.595 424.248,323.597C422.621,322.599 421.395,321.362 420.57,319.886C419.745,318.41 419.333,316.728 419.333,314.84L419.333,314.808C419.333,312.247 420.006,310.061 421.351,308.249C422.697,306.436 424.628,305.042 427.145,304.066C429.663,303.089 432.658,302.601 436.13,302.601C439.949,302.601 443.101,303.154 445.586,304.261C448.071,305.368 449.916,306.795 451.12,308.541C452.324,310.288 452.927,312.138 452.927,314.092L452.927,314.319L440.817,314.319L440.752,314.027C440.622,313.462 440.177,312.865 439.418,312.236C438.658,311.607 437.562,311.292 436.13,311.292C435.327,311.292 434.622,311.39 434.014,311.585C433.406,311.78 432.934,312.073 432.598,312.464C432.261,312.855 432.093,313.332 432.093,313.896L432.093,313.929C432.093,314.406 432.213,314.813 432.451,315.15C432.69,315.486 433.113,315.779 433.721,316.028C434.329,316.278 435.175,316.511 436.26,316.728L442.77,317.965C446.655,318.703 449.498,319.886 451.299,321.513C453.1,323.141 454.001,325.344 454.001,328.122L454.001,328.154C454.001,330.78 453.274,333.059 451.82,334.99C450.366,336.921 448.337,338.408 445.733,339.45C443.128,340.491 440.09,341.012 436.618,341.012Z" style="fill-rule:nonzero;"/>
            </g>
        </g>
    </g>
</svg>
